<?xml version="1.0" encoding="UTF-8"?>
<svg width="20px" height="22px" viewBox="0 0 20 22" version="1.1" xmlns="http://www.w3.org/2000/svg" xmlns:xlink="http://www.w3.org/1999/xlink">
    <!-- Generator: Sketch 51.3 (57544) - http://www.bohemiancoding.com/sketch -->
    <title>presentation-board-with-graph</title>
    <desc>Created with Sketch.</desc>
    <defs></defs>
    <g id="!!!-EVP-Rework-Copy-final" stroke="none" stroke-width="1" fill="none" fill-rule="evenodd">
        <g id="example-1" transform="translate(-38.000000, -344.000000)" fill="#FF5D3A" fill-rule="nonzero">
            <g id="Vertical-menu">
                <g id="presentation-board-with-graph" transform="translate(38.000000, 344.000000)">
                    <path d="M19.9380851,1.00029787 C19.9380851,0.447957447 19.4901277,0 18.9382553,0 L1.43889362,0 C0.886553191,0 0.43906383,0.447957447 0.43906383,1.00029787 C0.43906383,1.36961702 0.641276596,1.68838298 0.938978723,1.86157447 L0.938978723,13.3802128 C1.20953191,13.1330638 1.53859574,12.8320851 1.93880851,12.4660426 L1.93880851,2.00012766 L18.4378723,2.00012766 L18.4378723,12.9996596 L5.55195745,12.9996596 C5.2172766,13.365234 4.91161702,13.6999149 4.63731915,14.0004255 L5.51965957,14.0004255 L3.72221277,20.7417872 C3.57991489,21.2754043 3.8972766,21.8235319 4.43089362,21.9653617 C4.96170213,22.1067234 5.51217021,21.7902979 5.65446809,21.2566809 L7.45659574,14.4989362 L12.919617,14.4989362 L14.7222128,21.2566809 C14.8415745,21.7037021 15.2455319,21.9990638 15.6874043,21.9990638 C15.7735319,21.9990638 15.8596596,21.988766 15.9457872,21.9653617 C16.4798723,21.8225957 16.796766,21.2744681 16.6549362,20.7417872 L14.8570213,13.9999574 L18.9387234,13.9999574 C19.2148936,13.9999574 19.4381702,13.7762128 19.4381702,13.5000426 L19.4381702,1.86157447 C19.7363404,1.68791489 19.9380851,1.36961702 19.9380851,1.00029787 Z" id="Shape"></path>
                    <path d="M10.9386809,11.1254468 L10.9386809,7.37561702 C10.9386809,6.8232766 10.4907234,6.37531915 9.93885106,6.37531915 C9.38697872,6.37531915 8.93902128,6.8232766 8.93902128,7.37561702 L8.93902128,11.1254468 C8.93902128,11.6787234 9.38697872,12.1262128 9.93885106,12.1262128 C10.4907234,12.1257447 10.9386809,11.6777872 10.9386809,11.1254468 Z" id="Shape"></path>
                    <path d="M14.1885957,11.1254468 L14.1885957,3.87480851 C14.1885957,3.32246809 13.7406383,2.87497872 13.1882979,2.87497872 C12.6359574,2.87497872 12.1889362,3.32246809 12.1889362,3.87480851 L12.1889362,11.1254468 C12.1889362,11.6782553 12.6368936,12.1257447 13.188766,12.1257447 C13.7406383,12.1252766 14.1885957,11.6777872 14.1885957,11.1254468 Z" id="Shape"></path>
                    <path d="M17.4380426,11.1254468 L17.4380426,5.87493617 C17.4380426,5.32212766 16.9900851,4.8746383 16.4382128,4.8746383 C15.8858723,4.8746383 15.4379149,5.32212766 15.4379149,5.87493617 L15.4379149,11.1254468 C15.4379149,11.6787234 15.8858723,12.1262128 16.4382128,12.1262128 C16.9900851,12.1257447 17.4380426,11.6777872 17.4380426,11.1254468 Z" id="Shape"></path>
                    <path d="M7.45051064,9.09723404 C7.35548936,9.00268085 7.20055319,9.00221277 7.10553191,9.09723404 C7.10553191,9.09723404 0.411914894,15.2165106 0.379617021,15.2488085 C0.125914894,15.5025106 0.125914894,15.9144255 0.379617021,16.1685957 C0.633787234,16.422766 1.04570213,16.422766 1.29940426,16.1685957 C1.33170213,16.137234 7.45051064,9.44314894 7.45051064,9.44314894 C7.546,9.34719149 7.54553191,9.1927234 7.45051064,9.09723404 Z" id="Shape"></path>
                </g>
            </g>
        </g>
    </g>
</svg>